<svg width="512" height="90" viewBox="0 0 512 90" fill="none" xmlns="http://www.w3.org/2000/svg">
<path d="M97.6677 69.0579V8.59707H106.809V69.0579H97.6677ZM131.741 71.704L112.095 30.889H121.958L131.821 52.379L141.684 30.889H151.627L131.741 71.704ZM160.8 49.8932C160.8 57.511 165.291 62.3222 172.107 62.3222C178.923 62.3222 183.493 57.4308 183.493 50.0536C183.493 42.7566 178.923 37.785 172.107 37.785C165.371 37.785 160.8 42.8368 160.8 49.8932ZM151.819 49.7329C151.819 44.2802 153.744 39.6293 157.673 35.7002C161.602 31.771 166.413 29.8466 172.107 29.8466C177.8 29.8466 182.611 31.771 186.54 35.7002C190.469 39.6293 192.474 44.3603 192.474 50.0536C192.474 55.7469 190.469 60.4779 186.54 64.407C182.611 68.256 177.72 70.1805 171.946 70.1805C166.333 70.1805 161.602 68.256 157.673 64.3268C153.744 60.3977 151.819 55.5063 151.819 49.7329ZM208.157 69.0579H199.337V30.889H208.157V34.337C209.841 32.6531 211.285 31.4503 212.488 30.8088C213.771 30.1673 215.294 29.8466 217.058 29.8466C219.384 29.8466 221.789 30.6484 224.275 32.172L220.266 40.1906C218.582 38.9878 216.978 38.4265 215.374 38.4265C210.563 38.4265 208.157 42.0349 208.157 49.2517V69.0579ZM237.664 89.8262H227.64L242.475 62.0014L225.315 30.889H235.579L247.206 52.8601L258.111 30.889H268.054L237.664 89.8262ZM326.155 8.59707V17.1771H312.282V69.0579H303.221V17.1771H289.269V8.59707H326.155ZM333.813 49.8932C333.813 57.511 338.303 62.3222 345.119 62.3222C351.935 62.3222 356.505 57.4308 356.505 50.0536C356.505 42.7566 351.935 37.785 345.119 37.785C338.383 37.785 333.813 42.8368 333.813 49.8932ZM324.832 49.7329C324.832 44.2802 326.756 39.6293 330.685 35.7002C334.614 31.771 339.426 29.8466 345.119 29.8466C350.812 29.8466 355.623 31.771 359.553 35.7002C363.482 39.6293 365.486 44.3603 365.486 50.0536C365.486 55.7469 363.482 60.4779 359.553 64.407C355.623 68.256 350.732 70.1805 344.959 70.1805C339.345 70.1805 334.614 68.256 330.685 64.3268C326.756 60.3977 324.832 55.5063 324.832 49.7329ZM385.696 71.9446L365.729 30.889H375.673L385.616 52.6998L396.441 27.4409L407.266 52.6998L417.129 30.889H426.992L407.026 71.9446L396.441 47.3273L385.696 71.9446ZM437.398 44.8415H455.119C453.916 40.1105 450.949 37.785 446.218 37.785C441.968 37.785 438.44 40.5916 437.398 44.8415ZM464.18 49.9734V52.0583H436.836C437.398 58.2327 441.086 62.3222 446.779 62.3222C448.944 62.3222 450.789 61.8411 452.152 60.7986C453.595 59.7562 455.199 57.8317 457.043 54.945L464.501 59.0345C460.01 66.8126 454.477 70.1805 446.459 70.1805C440.765 70.1805 436.195 68.3362 432.747 64.6476C429.299 60.959 427.615 56.0676 427.615 50.0536C427.615 43.9594 429.299 39.068 432.586 35.3794C435.954 31.6908 440.445 29.8466 445.978 29.8466C457.284 29.8466 464.18 37.7049 464.18 49.9734ZM480.116 69.0579H471.295V30.889H480.116V34.337C481.8 32.6531 483.243 31.4503 484.446 30.8088C485.729 30.1673 487.252 29.8466 489.016 29.8466C491.342 29.8466 493.747 30.6484 496.233 32.172L492.224 40.1906C490.54 38.9878 488.936 38.4265 487.333 38.4265C482.521 38.4265 480.116 42.0349 480.116 49.2517V69.0579Z" fill="black"/>
<path d="M35.4746 8.88867C41.9221 31.4777 51.8426 52.5995 64.624 71.6377C55.2184 68.9986 45.3029 67.5879 35.0635 67.5879C25.1905 67.5879 15.6179 68.8987 6.51367 71.3584C19.2047 52.3931 29.0587 31.3672 35.4746 8.88867Z" stroke="black" stroke-width="8"/>
</svg>
